<svg width="722" height="460" viewBox="0 0 722 460" fill="none" xmlns="http://www.w3.org/2000/svg">
<g filter="url(#filter0_i_4_2)">
<rect width="722" height="458" rx="25" transform="matrix(1 0 0 -1 0 460)" fill="url(#paint0_linear_4_2)"/>
</g>
<rect width="722" height="107.344" transform="matrix(1 0 0 -1 0 427)" fill="#D6D6D6"/>
<rect width="157.438" height="103.766" rx="51.8828" transform="matrix(1 0 0 -1 24 234)" fill="url(#paint1_linear_4_2)"/>
<text transform="matrix(1 0 0 -1 24 106)" fill="#FEFBFF" xml:space="preserve" style="white-space: pre" font-family="Sora" font-size="36" letter-spacing="0.03em"><tspan x="0" y="37.24">9999 9999 9999 9999</tspan></text>
<text transform="matrix(1 0 0 -1 64 302)" fill="#F7F2FA" xml:space="preserve" style="white-space: pre" font-family="Sora" font-size="36" font-weight="600" letter-spacing="0em"><tspan x="0" y="37.24">gold</tspan></text>
<text transform="matrix(1 0 0 -1 66 47)" fill="#FEFBFF" xml:space="preserve" style="white-space: pre" font-family="Sora" font-size="18" letter-spacing="0em"><tspan x="0" y="18.62">02/17</tspan></text>
<text transform="matrix(1 0 0 -1 168 47)" fill="#FEFBFF" xml:space="preserve" style="white-space: pre" font-family="Sora" font-size="18" letter-spacing="0em"><tspan x="0" y="18.62">01/26 </tspan></text>
<text transform="matrix(1 0 0 -1 283 47)" fill="#FEFBFF" xml:space="preserve" style="white-space: pre" font-family="Sora" font-size="18" letter-spacing="0em"><tspan x="0" y="18.62">123</tspan></text>
<text transform="matrix(1 0 0 -1 624 39)" fill="#FBF9FC" xml:space="preserve" style="white-space: pre" font-family="Sora" font-size="13" font-weight="600" letter-spacing="0em"><tspan x="0" y="13.42">cirrus.</tspan></text>
<circle cx="31" cy="31" r="31" transform="matrix(1 0 0 -1 595 102)" fill="#0167B2"/>
<circle cx="31" cy="31" r="31" transform="matrix(1 0 0 -1 633 102)" fill="#02A1E2"/>
<path fill-rule="evenodd" clip-rule="evenodd" d="M644.872 46.5993C652.228 52.2609 656.968 61.1542 656.968 71.1546C656.968 81.155 652.228 90.0483 644.872 95.71C637.515 90.0483 632.775 81.155 632.775 71.1546C632.775 61.1542 637.515 52.2609 644.872 46.5993Z" fill="#207CBD"/>
<text transform="matrix(1 0 0 -1 26 44)" fill="#FEFBFF" xml:space="preserve" style="white-space: pre" font-family="Source Sans Pro" font-size="6" letter-spacing="0.1em"><tspan x="0" y="6.133">MEMBER&#10;</tspan><tspan x="0" y="14.133">SINCE</tspan></text>
<text transform="matrix(1 0 0 -1 138 44)" fill="#FEFBFF" xml:space="preserve" style="white-space: pre" font-family="Source Sans Pro" font-size="6" letter-spacing="0.1em"><tspan x="0" y="6.133">VALID&#10;</tspan><tspan x="0" y="14.133">THRU</tspan></text>
<text transform="matrix(1 0 0 -1 240 44)" fill="#FEFBFF" xml:space="preserve" style="white-space: pre" font-family="Source Sans Pro" font-size="6" letter-spacing="0.1em"><tspan x="0" y="6.133">SECURITY&#10;</tspan><tspan x="0" y="14.133">CODE</tspan></text>
<path d="M322 272C322 271.47 321.789 270.961 321.414 270.586C321.039 270.211 320.53 270 320 270H308L304 266V282C304 282.53 304.211 283.039 304.586 283.414C304.961 283.789 305.47 284 306 284H320C320.53 284 321.039 283.789 321.414 283.414C321.789 283.039 322 282.53 322 282V272Z" stroke="#FEFBFF" stroke-linecap="round" stroke-linejoin="round"/>
<path d="M313 224C318.523 224 323 228.477 323 234C323 239.523 318.523 244 313 244C307.477 244 303 239.523 303 234C303 228.477 307.477 224 313 224Z" stroke="#FEFBFF" stroke-linecap="round" stroke-linejoin="round"/>
<path d="M310.09 237C310.325 237.668 310.789 238.232 311.4 238.591C312.011 238.95 312.729 239.081 313.427 238.961C314.125 238.841 314.759 238.478 315.215 237.936C315.671 237.394 315.921 236.708 315.92 236C315.92 234 312.92 233 312.92 233" stroke="#FEFBFF" stroke-linecap="round" stroke-linejoin="round"/>
<path d="M313 229H313.01" stroke="#FEFBFF" stroke-linecap="round" stroke-linejoin="round"/>
<text transform="matrix(1 0 0 -1 335 290)" fill="#FEFBFF" xml:space="preserve" style="white-space: pre" font-family="Source Sans Pro" font-size="9" letter-spacing="0em"><tspan x="0" y="10.1995">Est&#xe1; com d&#xfa;vidas?&#10;</tspan><tspan x="0" y="24.1995">Nosso app pode te ajudar.</tspan></text>
<text transform="matrix(1 0 0 -1 335 248)" fill="#FEFBFF" xml:space="preserve" style="white-space: pre" font-family="Source Sans Pro" font-size="9" letter-spacing="0em"><tspan x="0" y="10.1995">Fale com a gente:&#10;</tspan><tspan x="0" y="24.1995">0800 591 2117</tspan></text>
<circle cx="31.5" cy="31.5" r="31.5" transform="matrix(1 0 0 -1 94 213)" fill="#D9D9D9"/>
<path fill-rule="evenodd" clip-rule="evenodd" d="M75.8828 234C47.2287 234 24 210.771 24 182.117C24 153.463 47.2287 130.234 75.8828 130.234H91.19C123.446 170.059 126.039 192.773 91 234H75.8828Z" fill="url(#paint2_linear_4_2)"/>
<defs>
<filter id="filter0_i_4_2" x="0" y="2" width="725" height="461" filterUnits="userSpaceOnUse" color-interpolation-filters="sRGB">
<feFlood flood-opacity="0" result="BackgroundImageFix"/>
<feBlend mode="normal" in="SourceGraphic" in2="BackgroundImageFix" result="shape"/>
<feColorMatrix in="SourceAlpha" type="matrix" values="0 0 0 0 0 0 0 0 0 0 0 0 0 0 0 0 0 0 127 0" result="hardAlpha"/>
<feOffset dx="3" dy="3"/>
<feGaussianBlur stdDeviation="3"/>
<feComposite in2="hardAlpha" operator="arithmetic" k2="-1" k3="1"/>
<feColorMatrix type="matrix" values="0 0 0 0 1 0 0 0 0 1 0 0 0 0 1 0 0 0 0.25 0"/>
<feBlend mode="normal" in2="shape" result="effect1_innerShadow_4_2"/>
</filter>
<linearGradient id="paint0_linear_4_2" x1="610.09" y1="61.83" x2="354.096" y2="526.995" gradientUnits="userSpaceOnUse">
<stop stop-color="#A950C4"/>
<stop offset="1" stop-color="#82269E"/>
</linearGradient>
<linearGradient id="paint1_linear_4_2" x1="83" y1="104" x2="126.5" y2="6" gradientUnits="userSpaceOnUse">
<stop stop-color="#F6F3F7"/>
<stop offset="1" stop-color="#D6D6D6"/>
</linearGradient>
<linearGradient id="paint2_linear_4_2" x1="95.5" y1="229" x2="47" y2="142.5" gradientUnits="userSpaceOnUse">
<stop stop-color="#F5F5F5"/>
<stop offset="1" stop-color="#D6D6D6"/>
</linearGradient>
</defs>
</svg>
